<svg width="500" height="501" viewBox="0 0 500 501" fill="none" xmlns="http://www.w3.org/2000/svg">
<path fill-rule="evenodd" clip-rule="evenodd" d="M125.058 255.614C129.236 244.056 133.892 232.3 138.655 220.65C139.594 218.387 140.553 216.164 141.532 213.981L170.423 279.014L201.409 209.267H215.661V298.978H200.772V242.535L175.195 298.978H165.397L139.947 242.816V298.978H125.058V255.614ZM316.904 280.878C307.285 291.401 296.351 301.707 284.381 311.586C231.085 355.625 157.734 391.58 125.042 368.167C98.4258 349.039 107.545 304.063 125.058 255.614V209.267H139.438L141.532 213.981C166.596 158.084 204.444 128.383 251.771 125.969C300.672 123.46 346.193 131.251 358.281 173.338C361.358 184.375 361.415 196.074 358.879 208.115C357.603 208.034 356.298 207.994 354.965 207.994C345.633 207.994 337.617 209.903 330.915 213.72C324.298 217.453 319.208 222.755 315.645 229.627C312.082 236.498 310.3 244.642 310.3 254.059C310.3 263.475 312.082 271.662 315.645 278.618C316.045 279.391 316.465 280.144 316.904 280.878ZM329.012 266.629C330.194 270.902 332.058 274.516 334.605 277.473C339.44 282.987 346.397 285.744 355.474 285.744C360.225 285.744 364.424 285.065 368.072 283.708C371.805 282.266 375.664 279.891 379.652 276.582L384.996 289.562C381.348 292.955 376.979 295.585 371.889 297.451C366.884 299.317 361.243 300.251 354.965 300.251C345.633 300.251 337.617 298.384 330.915 294.652C325.042 291.263 320.372 286.672 316.904 280.878C321.212 276.166 325.257 271.41 329.012 266.629ZM329.012 266.629C327.99 262.931 327.479 258.742 327.479 254.059C327.479 243.964 329.854 236.201 334.605 230.772C339.301 225.417 345.997 222.662 354.693 222.508C349.322 237.09 340.522 251.976 329.012 266.629ZM354.693 222.508C356.474 217.67 357.879 212.866 358.879 208.115C363.611 208.413 367.947 209.263 371.889 210.666C376.979 212.448 381.348 215.078 384.996 218.556L379.652 231.535C375.664 228.312 371.805 226.021 368.072 224.664C364.424 223.222 360.225 222.501 355.474 222.501C355.212 222.501 354.951 222.503 354.693 222.508ZM271.666 281.418V298.978H287.445V281.418H300.297V268.947H287.445V209.267H274.211L231.582 269.965V281.418H271.666ZM271.666 232.97V268.947H246.471L271.666 232.97Z" fill="white"/>
</svg>
